<svg xmlns="http://www.w3.org/2000/svg" xmlns:xlink="http://www.w3.org/1999/xlink" viewBox="0 0 321.4 99.01"><defs><style>.cls-1{fill:url(#linear-gradient);}</style><linearGradient id="linear-gradient" x1="49.5" y1="-14.1" x2="49.5" y2="129.54" gradientUnits="userSpaceOnUse"><stop offset="0" stop-color="#849297"/><stop offset="0.45" stop-color="#545f6e"/><stop offset="0.81" stop-color="#343d52"/><stop offset="1" stop-color="#283048"/></linearGradient></defs><title>zblackcolor_2logohorizontal</title><g id="Layer_2" data-name="Layer 2"><g id="Layer_1-2" data-name="Layer 1"><polygon class="cls-1" points="34.65 84.16 34.65 59.41 49.51 0 64.36 59.41 64.36 84.16 49.51 99.01 34.65 84.16"/><polygon points="60.88 26.37 99.01 49.51 70.51 78.01 74.26 54.45 60.88 26.37"/><polygon points="0 49.51 38.13 26.37 24.75 54.45 28.5 78.01 0 49.51"/><polygon points="47.03 0 40.84 17.33 0 39.6 47.03 0"/><polygon points="51.98 0 58.17 17.33 99.01 39.6 51.98 0"/><path d="M127.61,11.55a1,1,0,0,1,1-1H144a11.23,11.23,0,0,1,11.26,11.16c0,4.75-3.15,8.57-7.64,10.38l7.08,13.12a1,1,0,0,1-.88,1.5H147a.94.94,0,0,1-.83-.47l-6.87-13.69h-3.56V45.74a1,1,0,0,1-1,1h-6.15a1,1,0,0,1-1-1ZM143.36,26a4.14,4.14,0,0,0,3.93-4.13A4,4,0,0,0,143.36,18h-7.64V26Z"/><path d="M157.57,45.38l16.16-34.76a1.06,1.06,0,0,1,.88-.57h.52a1.06,1.06,0,0,1,.88.57l16.16,34.76a.92.92,0,0,1-.88,1.35h-5.73c-.93,0-1.34-.31-1.81-1.3l-1.86-4.08h-14L166,45.49a1.93,1.93,0,0,1-1.86,1.24h-5.69A.91.91,0,0,1,157.57,45.38ZM178.8,34.33l-3.93-8.52h-.05l-3.88,8.52Z"/><path d="M196.41,11.55a1,1,0,0,1,1-1h12.45a11.52,11.52,0,1,1,0,23h-5.42V45.74a1,1,0,0,1-1,1h-6.09a1,1,0,0,1-1-1Zm13,14.52A4.06,4.06,0,0,0,213.45,22a4,4,0,0,0-4.08-3.83h-4.9v7.91Z"/><path d="M231.48,18.16h-7.39a1,1,0,0,1-1-1V11.55a1,1,0,0,1,1-1H247a1,1,0,0,1,1,1v5.63a1,1,0,0,1-1,1h-7.39V45.74a1,1,0,0,1-1,1h-6.2a1,1,0,0,1-1-1Z"/><path d="M268.87,10.05A18.6,18.6,0,1,1,250.33,28.7,18.57,18.57,0,0,1,268.87,10.05Zm0,28.93A10.33,10.33,0,1,0,258.59,28.7,10.35,10.35,0,0,0,268.87,39Z"/><path d="M293.72,11.55a1,1,0,0,1,1-1h15.44A11.23,11.23,0,0,1,321.4,21.73c0,4.75-3.15,8.57-7.64,10.38l7.07,13.12a1,1,0,0,1-.87,1.5h-6.87a.94.94,0,0,1-.83-.47l-6.87-13.69h-3.56V45.74a1,1,0,0,1-1,1H294.7a1,1,0,0,1-1-1ZM309.47,26a4.14,4.14,0,0,0,3.93-4.13A4,4,0,0,0,309.47,18h-7.64V26Z"/><path d="M144.12,58.91a13.15,13.15,0,0,1,9.32,3.57.49.49,0,0,1,0,.69l-.61.65c-.23.23-.43.19-.66,0a12,12,0,1,0-8.09,21,12.18,12.18,0,0,0,8.09-3.22.47.47,0,0,1,.62-.08l.65.65a.44.44,0,0,1,0,.65,13.25,13.25,0,0,1-9.36,3.72,13.81,13.81,0,1,1,0-27.61Z"/><path d="M163,85.68,174.84,59a.55.55,0,0,1,.46-.27h.12a.5.5,0,0,1,.5.27l11.69,26.69c.08.23.08.46-.34.46h-1a.62.62,0,0,1-.54-.35l-3.1-7.05H168l-3.07,7.05a.62.62,0,0,1-.54.35H163.3C163,86.14,162.92,86,163,85.68ZM182,77.24l-6.56-15.45h-.08l-6.67,15.45Z"/><path d="M199.08,59.8a.51.51,0,0,1,.5-.5h8.25a8.65,8.65,0,1,1,0,17.29h-7v9a.54.54,0,0,1-.61.5h-.69a.51.51,0,0,1-.5-.5Zm8.67,15a7,7,0,0,0,6.94-7,6.88,6.88,0,0,0-7-6.75h-6.83V74.83Z"/><path d="M229,59.8a.51.51,0,0,1,.49-.5h.85a.51.51,0,0,1,.5.5V85.64a.52.52,0,0,1-.54.5h-.81a.51.51,0,0,1-.49-.5Z"/><path d="M250.24,61h-7.32c-.38,0-.5-.23-.5-.58V59.8a.48.48,0,0,1,.5-.5h16.49a.49.49,0,0,1,.5.5v.65a.49.49,0,0,1-.5.5h-7.36V85.64c0,.27-.23.5-.62.5h-.69a.51.51,0,0,1-.5-.5Z"/><path d="M266.08,85.68,277.89,59a.55.55,0,0,1,.46-.27h.12a.5.5,0,0,1,.5.27l11.69,26.69c.08.23.08.46-.34.46h-1a.62.62,0,0,1-.54-.35l-3.1-7.05H271L268,85.79a.61.61,0,0,1-.53.35h-1.08C266.08,86.14,266,86,266.08,85.68ZM285,77.24l-6.56-15.45h-.08l-6.67,15.45Z"/><path d="M302.13,59.8a.51.51,0,0,1,.5-.5h.85a.5.5,0,0,1,.46.5V84.53h12.23c.46,0,.5.23.5.5v.69a.44.44,0,0,1-.5.42H302.63a.51.51,0,0,1-.5-.5Z"/></g></g></svg>